<?xml version="1.0" encoding="UTF-8" standalone="no"?>
<svg
   version="1.0"
   width="1075.182pt"
   height="28.216335pt"
   viewBox="0 0 1075.182 28.216335"
   preserveAspectRatio="xMidYMid"
   id="svg6"
   sodipodi:docname="love-leaf-seperator-hor.svg"
   inkscape:version="1.2.2 (732a01da63, 2022-12-09)"
   xmlns:inkscape="http://www.inkscape.org/namespaces/inkscape"
   xmlns:sodipodi="http://sodipodi.sourceforge.net/DTD/sodipodi-0.dtd"
   xmlns="http://www.w3.org/2000/svg"
   xmlns:svg="http://www.w3.org/2000/svg">
  <defs
     id="defs10" />
  <sodipodi:namedview
     id="namedview8"
     pagecolor="#ffffff"
     bordercolor="#000000"
     borderopacity="0.25"
     inkscape:showpageshadow="2"
     inkscape:pageopacity="0.0"
     inkscape:pagecheckerboard="0"
     inkscape:deskcolor="#d1d1d1"
     inkscape:document-units="pt"
     showgrid="false"
     inkscape:zoom="0.5511883"
     inkscape:cx="484.40796"
     inkscape:cy="8.1641791"
     inkscape:window-width="1920"
     inkscape:window-height="991"
     inkscape:window-x="-9"
     inkscape:window-y="-9"
     inkscape:window-maximized="1"
     inkscape:current-layer="svg6" />
  <g
     transform="matrix(0.1,0,0,-0.1,516.6469,560.69919)"
     fill="#000000"
     stroke="none"
     id="g4">
    <path
       d="m 5576.531,5598.3515 c -29,30 -137,-23 -171,-84 -15,-25 -23,-29 -57,-28 h -40 l 40,18 c 50,22 68,43 63,73 -2,19 -10,24 -42,26 -36,3 -43,-1 -98,-57 -48,-50 -64,-61 -91,-61 l -32,1 37,19 c 48,26 70,57 57,82 -22,41 -94,15 -157,-57 -32,-37 -45,-45 -73,-45 l -34,1 43,21 c 47,23 66,49 57,78 -15,48 -133,0 -173,-71 -15,-25 -23,-29 -57,-28 h -40 l 40,18 c 50,22 68,43 63,73 -2,18 -10,24 -36,26 -40,4 -83,-23 -127,-79 -24,-30 -37,-38 -63,-39 -20,0 -31,4 -27,10 3,5 12,10 19,10 7,0 25,10 40,21 20,15 26,29 24,48 -3,22 -8,26 -41,29 -34,3 -43,-2 -98,-57 -49,-50 -67,-61 -92,-61 l -32,1 46,24 c 49,25 63,46 54,76 -7,22 -53,26 -88,8 -32,-16 -97,-81 -97,-96 0,-9 -14,-13 -42,-13 l -43,1 39,19 c 56,28 67,40 64,69 -2,21 -9,27 -36,29 -42,4 -97,-30 -132,-82 -21,-31 -31,-36 -63,-36 -23,0 -36,4 -32,10 3,6 12,10 19,10 7,0 25,10 40,21 35,27 33,72 -2,77 -38,6 -79,-17 -126,-69 -36,-41 -50,-49 -78,-49 l -33,1 43,21 c 47,23 66,49 57,78 -8,24 -53,27 -94,6 -30,-16 -91,-80 -91,-96 0,-6 -19,-10 -42,-10 l -43,1 39,19 c 56,28 67,40 64,69 -7,61 -115,26 -170,-55 -20,-29 -28,-34 -63,-33 h -40 l 40,18 c 50,22 68,43 63,73 -2,19 -10,24 -41,26 -34,3 -43,-2 -98,-57 -49,-50 -67,-61 -92,-61 l -32,1 35,18 c 52,28 77,58 64,79 -13,20 -36,26 -70,18 -30,-8 -114,-83 -114,-102 0,-10 -13,-14 -42,-14 l -43,1 39,19 c 56,28 67,40 64,69 -3,22 -9,26 -38,29 -42,3 -111,-41 -138,-89 -15,-25 -23,-29 -57,-28 h -40 l 40,18 c 50,22 68,43 63,73 -2,19 -10,24 -42,26 -36,3 -43,-1 -98,-57 -48,-50 -64,-61 -91,-61 l -32,1 37,19 c 48,26 70,57 57,82 -22,41 -94,15 -157,-57 -34,-39 -44,-45 -78,-44 h -39 l 40,18 c 55,25 82,57 69,79 -28,44 -116,10 -166,-64 -21,-30 -28,-34 -68,-33 -44,1 -44,1 -15,11 56,20 86,48 83,77 -6,56 -84,36 -152,-40 -39,-43 -49,-49 -83,-48 h -38 l 40,18 c 50,22 68,43 63,73 -7,53 -86,30 -152,-43 -39,-43 -49,-49 -83,-48 h -38 l 40,18 c 81,37 97,92 29,99 -36,4 -107,-45 -132,-89 -15,-25 -23,-29 -62,-29 h -45 l 52,24 c 51,24 69,49 57,80 -4,11 -18,16 -42,16 -31,0 -44,-9 -94,-60 -52,-53 -63,-60 -96,-59 h -37 l 40,18 c 50,22 68,43 63,73 -7,53 -86,30 -152,-43 -39,-43 -49,-49 -83,-48 h -38 l 40,18 c 50,22 68,43 63,73 -8,56 -124,12 -166,-63 -15,-25 -22,-29 -62,-28 h -45 l 52,24 c 51,23 69,48 57,79 -9,24 -66,20 -100,-6 -34,-26 -84,-80 -84,-91 0,-4 -21,-7 -47,-6 h -48 l 40,18 c 50,22 68,43 63,73 -7,53 -86,30 -152,-43 -39,-43 -49,-49 -83,-48 h -38 l 41,19 c 52,23 77,56 63,82 -6,11 -21,18 -38,18 -34,0 -107,-51 -129,-91 -15,-25 -23,-29 -62,-29 h -45 l 52,24 c 51,24 69,49 57,80 -4,11 -18,16 -42,16 -30,0 -44,-9 -95,-60 -52,-51 -65,-60 -96.00004,-60 l -36,1 39,19 c 56.00004,28 67.00004,40 64.00004,69 -6,56 -84.00004,35 -152.00004,-40 -39,-43 -49,-49 -83,-48 h -38 l 40,18 c 50,22 68,43 63,73 -3,24 -26,33 -62,24 -29,-7 -116,-83 -116,-102 0,-10 -13,-14 -47,-14 l -48,1 52,25 c 54,26 73,55 53,79 -30,36 -115,-2 -162,-71 -21,-30 -28,-34 -68,-33 -44,1 -44,1 -15,11 56,20 86,48 83,77 -6,56 -84,36 -152,-40 -39,-43 -49,-49 -83,-48 h -38 l 40,18 c 50,22 68,43 63,73 -7,53 -86,30 -152,-43 -36,-41 -50,-49 -78,-49 l -33,1 43,21 c 47,23 66,49 57,78 -15,48 -132.999997,0 -172.999997,-71 -14,-24 -23,-29 -57,-29 l -40,1 39,19 c 56,28 67,40 64,69 -7,61 -115,26 -170.000003,-55 -20,-29 -28,-34 -63,-33 h -40 l 40,18 c 50,22 68,43 63,73 -2,19 -10,24 -41,26 -34,3 -43,-2 -98,-57 -49,-49 -67,-61 -92,-61 h -32 l 47,27 c 26,14 50,35 54,45 12,40 -40,62 -89,37 -32,-16 -97,-81 -97,-96 0,-9 -14,-13 -42,-13 l -43,1 39,19 c 56,28 67,40 64,69 -3,22 -9,26 -38,29 -42,3 -111,-41 -138,-89 -15,-25 -23,-29 -57,-28 h -40 l 40,18 c 50,22 68,43 63,73 -2,19 -10,24 -42,26 -36,3 -43,-1 -98,-57 -48,-50 -64,-61 -91,-61 l -32,1 37,19 c 48,26 70,57 57,82 -22,41 -94,15 -157,-57 -32,-37 -45,-45 -72.99996,-45 l -34,1 43,21 c 46.99996,23 65.99996,49 56.99996,78 -15,48 -132.99996,0 -172.99996,-71 -15,-25 -22,-29 -62,-28 h -45 l 40,18 c 50,22 68,43 63,73 -2,19 -10,24 -42,26 -36,3 -43,-1 -98,-57 -48,-50 -64,-61 -91,-61 l -32,1 35,18 c 52,28 77,58 64,79 -27,43 -95,21 -158,-49 -36,-41 -50,-49 -78,-49 l -33,1 43,21 c 47,23 66,49 57,78 -15,48 -133,0 -173,-71 -15,-25 -23,-29 -57,-28 h -40 l 40,18 c 50,22 68,43 63,73 -2,19 -10,24 -42,26 -36,3 -43,-1 -98,-57 -48,-50 -64,-61 -91,-61 l -32,1 36,19 c 46,24 61,43 57,72 -7,53 -86,30 -152,-43 -36,-41 -50,-49 -78,-49 l -33,1 43,21 c 47,23 66,49 57,78 -15,48 -133,0 -173,-71 -15,-25 -23,-29 -57,-28 h -40 l 40,18 c 50,22 68,43 63,73 -3,24 -32,34 -72,24 -22,-6 -82,-58 -108,-95 -12,-17 -24,-22 -49,-19 l -34,3 35,16 c 45,20 62,42 58,71 -2,19 -10,24 -41,26 -34,3 -43,-2 -98,-57 -53,-53 -65,-61 -97,-60 h -37 l 41,19 c 52,23 77,56 63,82 -6,11 -21,18 -38,18 -34,0 -107,-51 -129,-91 -15,-25 -23,-29 -62,-29 h -45 l 52,24 c 51,24 69,49 57,80 -4,11 -18,16 -42,16 -30,0 -44,-9 -95,-60 -52,-51 -65,-60 -96,-60 l -36,1 39,19 c 56,28 67,40 64,69 -6,56 -84,35 -152,-40 -39,-43 -49,-49 -83,-48 h -38 l 40,18 c 50,22 68,43 63,73 -3,24 -26,33 -62,24 -29,-7 -116,-83 -116,-102 0,-10 -13,-14 -47,-13 h -48 l 52,24 c 28,13 54,32 57,43 27,85 -103,59 -166,-34 -20,-29 -29,-34 -63,-34 l -40,1 39,19 c 56,28 67,40 64,69 -6,56 -84,35 -152,-40 -39,-43 -49,-49 -83,-48 h -38 l 40,18 c 50,22 68,43 63,73 -7,53 -86,30 -152,-43 -39,-43 -49,-49 -83,-48 h -38 l 40,18 c 81,37 97,92 29,99 -36,4 -103,-42 -130,-87 -16,-28 -23,-31 -64,-31 l -45,1 39,19 c 56,28 67,40 64,69 -6,56 -84,35 -152,-40 -39,-43 -49,-49 -83,-48 h -38 l 40,18 c 50,22 68,43 63,73 -3,25 -26,33 -64,24 -30,-8 -114,-83 -114,-102 0,-10 -14,-14 -47,-13 h -48 l 40,18 c 55,25 82,57 69,79 -28,44 -115,11 -164,-62 -23,-33 -29,-36 -70,-35 -44,1 -44,1 -15,11 56,20 86,48 83,77 -3,22 -8,26 -41,29 -34,3 -43,-2 -98,-57 -53,-53 -65,-61 -97,-60 h -37 l 40,18 c 50,22 68,43 63,73 -7,53 -86,30 -152,-43 -39,-43 -49,-49 -83,-48 h -38 l 41,19 c 52,23 77,56 63,82 -6,11 -21,18 -38,18 -34,0 -107,-51 -129,-91 -15,-25 -23,-29 -62,-29 h -45 l 51,24 c 53,25 69,46 59,77 -5,14 -16,19 -43,19 -31,0 -44,-8 -94,-60 -52,-53 -63,-60 -96,-59 h -37 l 40,18 c 50,22 68,43 63,73 -4,28 -37,35 -79,18 -40,-17 -109,-94 -109,-123 0,-31 62,-112 102,-133 33,-17 73,-12 81,9 11,28 -19,62 -73,84 l -55,22 h 55 c 54,0 56,-1 93,-50 56,-74 126,-100 144,-54 11,31 -14,63 -69,84 l -53,20 h 58 c 40,1 57,-3 57,-12 0,-20 92,-105 123,-112 31,-8 57,8 57,34 0,24 -39,58 -85,75 l -40,15 h 51 c 48,1 52,-1 84,-45 56,-74 121,-104 151,-68 22,27 -8,65 -71,91 l -55,22 h 55 c 54,0 56,-1 92,-49 21,-27 52,-57 69,-66 41,-21 79,-12 79,19 0,35 -20,55 -75,77 l -50,19 55,1 c 51,0 57,-2 73,-29 23,-38 81,-89 112,-97 29,-7 55,10 55,35 0,24 -39,58 -85,75 l -40,15 h 52 c 37,1 54,-3 61,-15 5,-8 28,-35 51,-59 47,-49 95,-66 118,-42 30,29 -9,79 -82,105 -29,10 -28,10 20,11 48,0 51,-2 88,-50 44,-57 88,-83 123,-75 18,5 24,13 24,35 0,34 -13,46 -77,71 l -48,19 63,1 c 43,0 62,-4 62,-13 0,-19 94,-105 124,-113 30,-7 56,9 56,35 0,24 -39,58 -85,75 l -40,15 h 51 c 48,1 52,-1 84,-45 56,-74 121,-104 151,-68 22,27 -8,65 -71,91 l -55,22 h 55 c 54,0 56,-1 93,-50 44,-57 88,-83 123,-75 18,5 24,13 24,35 0,34 -13,46 -77,71 l -48,19 55,1 c 51,0 57,-2 73,-29 23,-38 81,-89 112,-97 29,-7 55,10 55,35 0,24 -39,58 -85,75 l -40,15 h 48 c 46,1 50,-1 105,-60 46,-49 63,-61 91,-62 78,-4 56,72 -30,105 l -44,17 h 50 c 49,1 52,0 88,-49 42,-56 88,-84 122,-76 57,14 31,72 -45,103 l -55,22 h 55 c 54,0 56,-1 93,-50 56,-74 126,-100 144,-54 11,31 -14,63 -69,84 l -53,20 h 58 c 40,1 57,-3 57,-12 0,-20 92,-105 123,-112 31,-8 57,8 57,34 0,24 -39,58 -85,75 l -40,15 h 50 c 49,1 52,0 88,-49 56,-75 124,-101 151,-58 15,25 -21,69 -75,90 l -44,17 h 50 c 48,0 51,-2 87,-49 41,-54 87,-83 121,-78 18,2 22,10 22,38 0,32 -4,37 -55,62 l -55,27 53,1 c 37,0 52,-4 52,-14 0,-7 24,-36 54,-65 57,-53 93,-64 116,-36 23,28 3,62 -52,89 l -53,25 45,1 c 43,0 48,-3 84,-50 58,-76 123,-101 150,-58 15,25 -21,69 -75,90 l -44,17 h 50 c 48,0 51,-2 83,-45 55,-74 129,-107 150,-66 17,30 -5,61 -60,87 l -53,25 h 53 c 36,0 52,-4 52,-13 0,-18 90,-103 118,-112 31,-9 62,3 62,25 0,36 -14,53 -64,76 l -51,23 h 45 c 44,1 48,-2 84,-49 54,-71 113,-99 144,-68 29,29 0,72 -68,101 l -35,15 45,1 c 42,0 47,-3 80,-46 55,-73 121,-103 150,-68 25,30 -15,78 -85,103 -28,10 -26,10 28,11 40,1 57,-3 57,-12 0,-22 94,-106 126,-113 37.99996,-7 58.99996,14 49.99996,52 -5,18 -21,32 -58.99996,49 l -52,24 h 45 c 43.99996,1 47.99996,-2 83.99996,-49 54,-71 113,-99 144,-68 30,30 -3,76 -73,102 l -40,15 h 50 c 48,0 51,-2 83,-45 55,-74 129,-107 150,-67 17,31 -5,62 -60,88 l -53,25 h 53 c 28,0 52,-4 52,-9 0,-18 91,-109 116,-115 52,-13 76,11 57,59 -3,10 -29,28 -57,41 l -51,23 h 45 c 42,1 48,-2 80,-43 59,-74 118,-104 148,-74 29,29 0,72 -68,101 l -35,15 45,1 c 43,1 48,-1 83,-49 56,-75 124,-101 151,-58 15,25 -21,69 -75,90 l -44,17 h 53 c 28,1 52,-3 52,-7 0,-16 72.000003,-93 102.000003,-108 18,-9 39.9999999,-13 55,-9 20,5 24,11 21,38 -3,28 -10,36 -58,59 l -55,27 53,1 c 37,0 52,-4 52,-14 0,-7 24,-36 54,-65 54.999997,-51 89.999997,-63 113.999997,-39 29,29 0,72 -68,101 l -34.999997,15 45.999997,1 c 43,1 47,-2 79,-45 56,-74 121,-104 151,-68 22,27 -8,65 -71,91 l -55,22 h 55 c 54,0 56,-1 93,-50 22,-27 52,-56 69,-65 40,-21 78,-11 78,19 0,35 -20,55 -75,77 l -50,19 55,1 c 51,0 57,-2 73,-29 23,-38 81,-89 112,-97 29,-7 55,10 55,35 0,24 -39,58 -85,75 l -40,15 h 50 c 47,1 52,-1 85,-42 46,-58 75,-79 112,-81 75,-3 51,74 -33,106 l -44,17 h 50 c 49,1 52,0 88,-49 42,-56 88,-84 123.00004,-76 18,5 24,13 24,35 0,34 -13,46 -77.00004,71 l -48,19 h 55 c 54.00004,0 56.00004,-1 93.00004,-50 56,-74 126,-100 144,-54 11,31 -14,63 -69,84 l -53,20 h 58 c 40,1 57,-3 57,-12 0,-20 92,-105 123,-112 31,-8 57,8 57,34 0,24 -39,58 -85,75 l -40,15 h 50 c 50,1 52,0 89,-49 44,-57 87,-84 121,-76 59,15 32,74 -47,105 l -53,20 h 60 c 57,1 62,-1 78,-28 23,-38 81,-89 112,-97 15,-4 32,-1 40,6 36,30 4,78 -69,104 l -41,14 58,1 c 40,1 57,-3 57,-12 0,-7 22,-34 49,-61 36,-35 57,-48 81,-49 77,-4 54,72 -31,105 l -44,17 h 50 c 50,1 52,0 89,-49 44,-57 87,-84 121,-76 57,14 31,72 -45,103 l -55,22 h 55 c 54,0 56,-1 92,-49 21,-27 52,-57 69,-66 41,-21 79,-12 79,19 0,35 -20,55 -75,77 l -50,19 58,1 c 42,0 57,-4 57,-14 0,-19 94,-104 124,-112 30,-7 56,9 56,35 0,24 -39,58 -85,75 l -40,15 h 51 c 48,1 52,-1 84,-45 56,-74 121,-104 151,-68 22,27 -8,65 -71,91 l -55,22 h 55 c 54,0 56,-1 92,-49 21,-27 52,-57 69,-66 41,-21 79,-12 79,19 0,35 -20,55 -75,77 l -50,19 55,1 c 51,0 57,-2 73,-29 23,-38 81,-89 112,-97 29,-7 55,10 55,35 0,24 -39,58 -85,75 l -40,15 h 50 c 50,1 52,0 89,-49 54,-71 113,-99 144,-68 30,30 -3,76 -73,102 l -40,15 h 50 c 48,0 51,-2 83,-45 55,-74 129,-107 150,-66 17,30 -5,61 -60,87 l -53,25 h 53 c 28,0 52,-4 52,-9 0,-18 91,-109 116,-115 52,-13 76,11 57,59 -3,10 -29,28 -57,41 l -51,23 h 45 c 43,1 48,-2 84,-48 57,-72 114,-99 144,-69 29,29 0,72 -68,101 l -35,15 45,1 c 43,1 48,-1 83,-49 56,-75 124,-101 151,-58 15,25 -21,69 -75,90 l -44,17 h 53 c 28,1 52,-3 52,-7 0,-16 72,-93 102,-108 37,-19 78,-11 78,15 0,37 -14,54 -64,77 l -51,23 h 53 c 37,1 52,-3 52,-13 0,-7 24,-36 54,-65 55,-51 90,-63 114,-39 29,29 0,72 -68,101 l -35,15 45,1 c 43,1 48,-1 83,-49 56,-75 124,-101 151,-58 15,25 -21,69 -75,90 l -44,17 h 58 c 31,1 57,-3 57,-7 0,-16 72,-93 102,-108 37,-19 78,-11 78,15 0,37 -14,54 -64,77 l -51,23 h 53 c 36,1 52,-3 52,-12 0,-20 90,-107 118,-114 14,-3 32,-1 41,4 40,25 16,72 -54,104 l -40,18 h 45 c 43,1 48,-2 83,-49 56,-75 124,-101 151,-58 15,25 -21,69 -75,90 l -44,17 h 50 c 48,0 51,-2 87,-49 41,-54 87,-83 121,-78 18,2 22,10 22,38 0,32 -4,37 -55,62 l -55,27 53,1 c 37,0 52,-4 52,-14 0,-23 106,-116 133,-116 33,0 51,23 43,56 -5,18 -21,32 -59,49 l -52,24 h 45 c 44,1 48,-2 84,-49 58,-76 123,-101 150,-58 15,25 -21,69 -75,90 l -44,17 h 50 c 48,0 51,-2 83,-45 55,-74 129,-107 150,-67 17,31 -5,62 -60,88 l -53,25 h 53 c 29,0 52,-5 52,-10 0,-19 90,-108 116,-114 36,-9 64,2 64,25 0,36 -19,57 -67,76 l -48,18 55,5 c 66,6 72,23 10,30 -40,5 -42,6 -20,14 62,21 100,73 73,99 z"
       id="path2"
       style="fill:#ffffff" />
  </g>
</svg>
