<?xml version="1.0" encoding="UTF-8" standalone="no"?>
<svg
   version="1.0"
   width="44.000000pt"
   height="1094.000000pt"
   viewBox="0 0 44.000000 1094.000000"
   preserveAspectRatio="xMidYMid meet"
   id="svg6"
   sodipodi:docname="love-leaf-seperator.svg"
   inkscape:version="1.2.2 (732a01da63, 2022-12-09)"
   xmlns:inkscape="http://www.inkscape.org/namespaces/inkscape"
   xmlns:sodipodi="http://sodipodi.sourceforge.net/DTD/sodipodi-0.dtd"
   xmlns="http://www.w3.org/2000/svg"
   xmlns:svg="http://www.w3.org/2000/svg">
  <defs
     id="defs10" />
  <sodipodi:namedview
     id="namedview8"
     pagecolor="#ffffff"
     bordercolor="#000000"
     borderopacity="0.25"
     inkscape:showpageshadow="2"
     inkscape:pageopacity="0.0"
     inkscape:pagecheckerboard="0"
     inkscape:deskcolor="#d1d1d1"
     inkscape:document-units="pt"
     showgrid="false"
     inkscape:zoom="0.5511883"
     inkscape:cx="-205.01161"
     inkscape:cy="717.54063"
     inkscape:window-width="1920"
     inkscape:window-height="991"
     inkscape:window-x="-9"
     inkscape:window-y="-9"
     inkscape:window-maximized="1"
     inkscape:current-layer="g4" />
  <g
     transform="translate(0.000000,1094.000000) scale(0.100000,-0.100000)"
     fill="#000000"
     stroke="none"
     id="g4">
    <path
       d="M77 10833 c-30 -29 23 -137 84 -171 25 -15 29 -23 28 -57 l0 -40 -18 40 c-22 50 -43 68 -73 63 -19 -2 -24 -10 -26 -42 -3 -36 1 -43 57 -98 50 -48 61 -64 61 -91 l-1 -32 -19 37 c-26 48 -57 70 -82 57 -41 -22 -15 -94 57 -157 37 -32 45 -45 45 -73 l-1 -34 -21 43 c-23 47 -49 66 -78 57 -48 -15 0 -133 71 -173 25 -15 29 -23 28 -57 l0 -40 -18 40 c-22 50 -43 68 -73 63 -18 -2 -24 -10 -26 -36 -4 -40 23 -83 79 -127 30 -24 38 -37 39 -63 0 -20 -4 -31 -10 -27 -5 3 -10 12 -10 19 0 7 -10 25 -21 40 -15 20 -29 26 -48 24 -22 -3 -26 -8 -29 -41 -3 -34 2 -43 57 -98 50 -49 61 -67 61 -92 l-1 -32 -24 46 c-25 49 -46 63 -76 54 -22 -7 -26 -53 -8 -88 16 -32 81 -97 96 -97 9 0 13 -14 13 -42 l-1 -43 -19 39 c-28 56 -40 67 -69 64 -21 -2 -27 -9 -29 -36 -4 -42 30 -97 82 -132 31 -21 36 -31 36 -63 0 -23 -4 -36 -10 -32 -6 3 -10 12 -10 19 0 7 -10 25 -21 40 -27 35 -72 33 -77 -2 -6 -38 17 -79 69 -126 41 -36 49 -50 49 -78 l-1 -33 -21 43 c-23 47 -49 66 -78 57 -24 -8 -27 -53 -6 -94 16 -30 80 -91 96 -91 6 0 10 -19 10 -42 l-1 -43 -19 39 c-28 56 -40 67 -69 64 -61 -7 -26 -115 55 -170 29 -20 34 -28 33 -63 l0 -40 -18 40 c-22 50 -43 68 -73 63 -19 -2 -24 -10 -26 -41 -3 -34 2 -43 57 -98 50 -49 61 -67 61 -92 l-1 -32 -18 35 c-28 52 -58 77 -79 64 -20 -13 -26 -36 -18 -70 8 -30 83 -114 102 -114 10 0 14 -13 14 -42 l-1 -43 -19 39 c-28 56 -40 67 -69 64 -22 -3 -26 -9 -29 -38 -3 -42 41 -111 89 -138 25 -15 29 -23 28 -57 l0 -40 -18 40 c-22 50 -43 68 -73 63 -19 -2 -24 -10 -26 -42 -3 -36 1 -43 57 -98 50 -48 61 -64 61 -91 l-1 -32 -19 37 c-26 48 -57 70 -82 57 -41 -22 -15 -94 57 -157 39 -34 45 -44 44 -78 l0 -39 -18 40 c-25 55 -57 82 -79 69 -44 -28 -10 -116 64 -166 30 -21 34 -28 33 -68 -1 -44 -1 -44 -11 -15 -20 56 -48 86 -77 83 -56 -6 -36 -84 40 -152 43 -39 49 -49 48 -83 l0 -38 -18 40 c-22 50 -43 68 -73 63 -53 -7 -30 -86 43 -152 43 -39 49 -49 48 -83 l0 -38 -18 40 c-37 81 -92 97 -99 29 -4 -36 45 -107 89 -132 25 -15 29 -23 29 -62 l0 -45 -24 52 c-24 51 -49 69 -80 57 -11 -4 -16 -18 -16 -42 0 -31 9 -44 60 -94 53 -52 60 -63 59 -96 l0 -37 -18 40 c-22 50 -43 68 -73 63 -53 -7 -30 -86 43 -152 43 -39 49 -49 48 -83 l0 -38 -18 40 c-22 50 -43 68 -73 63 -56 -8 -12 -124 63 -166 25 -15 29 -22 28 -62 l0 -45 -24 52 c-23 51 -48 69 -79 57 -24 -9 -20 -66 6 -100 26 -34 80 -84 91 -84 4 0 7 -21 6 -47 l0 -48 -18 40 c-22 50 -43 68 -73 63 -53 -7 -30 -86 43 -152 43 -39 49 -49 48 -83 l0 -38 -19 41 c-23 52 -56 77 -82 63 -11 -6 -18 -21 -18 -38 0 -34 51 -107 91 -129 25 -15 29 -23 29 -62 l0 -45 -24 52 c-24 51 -49 69 -80 57 -11 -4 -16 -18 -16 -42 0 -30 9 -44 60 -95 51 -52 60 -65 60 -96 l-1 -36 -19 39 c-28 56 -40 67 -69 64 -56 -6 -35 -84 40 -152 43 -39 49 -49 48 -83 l0 -38 -18 40 c-22 50 -43 68 -73 63 -24 -3 -33 -26 -24 -62 7 -29 83 -116 102 -116 10 0 14 -13 14 -47 l-1 -48 -25 52 c-26 54 -55 73 -79 53 -36 -30 2 -115 71 -162 30 -21 34 -28 33 -68 -1 -44 -1 -44 -11 -15 -20 56 -48 86 -77 83 -56 -6 -36 -84 40 -152 43 -39 49 -49 48 -83 l0 -38 -18 40 c-22 50 -43 68 -73 63 -53 -7 -30 -86 43 -152 41 -36 49 -50 49 -78 l-1 -33 -21 43 c-23 47 -49 66 -78 57 -48 -15 0 -133 71 -173 24 -14 29 -23 29 -57 l-1 -40 -19 39 c-28 56 -40 67 -69 64 -61 -7 -26 -115 55 -170 29 -20 34 -28 33 -63 l0 -40 -18 40 c-22 50 -43 68 -73 63 -19 -2 -24 -10 -26 -41 -3 -34 2 -43 57 -98 49 -49 61 -67 61 -92 l0 -32 -27 47 c-14 26 -35 50 -45 54 -40 12 -62 -40 -37 -89 16 -32 81 -97 96 -97 9 0 13 -14 13 -42 l-1 -43 -19 39 c-28 56 -40 67 -69 64 -22 -3 -26 -9 -29 -38 -3 -42 41 -111 89 -138 25 -15 29 -23 28 -57 l0 -40 -18 40 c-22 50 -43 68 -73 63 -19 -2 -24 -10 -26 -42 -3 -36 1 -43 57 -98 50 -48 61 -64 61 -91 l-1 -32 -19 37 c-26 48 -57 70 -82 57 -41 -22 -15 -94 57 -157 37 -32 45 -45 45 -73 l-1 -34 -21 43 c-23 47 -49 66 -78 57 -48 -15 0 -133 71 -173 25 -15 29 -22 28 -62 l0 -45 -18 40 c-22 50 -43 68 -73 63 -19 -2 -24 -10 -26 -42 -3 -36 1 -43 57 -98 50 -48 61 -64 61 -91 l-1 -32 -18 35 c-28 52 -58 77 -79 64 -43 -27 -21 -95 49 -158 41 -36 49 -50 49 -78 l-1 -33 -21 43 c-23 47 -49 66 -78 57 -48 -15 0 -133 71 -173 25 -15 29 -23 28 -57 l0 -40 -18 40 c-22 50 -43 68 -73 63 -19 -2 -24 -10 -26 -42 -3 -36 1 -43 57 -98 50 -48 61 -64 61 -91 l-1 -32 -19 36 c-24 46 -43 61 -72 57 -53 -7 -30 -86 43 -152 41 -36 49 -50 49 -78 l-1 -33 -21 43 c-23 47 -49 66 -78 57 -48 -15 0 -133 71 -173 25 -15 29 -23 28 -57 l0 -40 -18 40 c-22 50 -43 68 -73 63 -24 -3 -34 -32 -24 -72 6 -22 58 -82 95 -108 17 -12 22 -24 19 -49 l-3 -34 -16 35 c-20 45 -42 62 -71 58 -19 -2 -24 -10 -26 -41 -3 -34 2 -43 57 -98 53 -53 61 -65 60 -97 l0 -37 -19 41 c-23 52 -56 77 -82 63 -11 -6 -18 -21 -18 -38 0 -34 51 -107 91 -129 25 -15 29 -23 29 -62 l0 -45 -24 52 c-24 51 -49 69 -80 57 -11 -4 -16 -18 -16 -42 0 -30 9 -44 60 -95 51 -52 60 -65 60 -96 l-1 -36 -19 39 c-28 56 -40 67 -69 64 -56 -6 -35 -84 40 -152 43 -39 49 -49 48 -83 l0 -38 -18 40 c-22 50 -43 68 -73 63 -24 -3 -33 -26 -24 -62 7 -29 83 -116 102 -116 10 0 14 -13 13 -47 l0 -48 -24 52 c-13 28 -32 54 -43 57 -85 27 -59 -103 34 -166 29 -20 34 -29 34 -63 l-1 -40 -19 39 c-28 56 -40 67 -69 64 -56 -6 -35 -84 40 -152 43 -39 49 -49 48 -83 l0 -38 -18 40 c-22 50 -43 68 -73 63 -53 -7 -30 -86 43 -152 43 -39 49 -49 48 -83 l0 -38 -18 40 c-37 81 -92 97 -99 29 -4 -36 42 -103 87 -130 28 -16 31 -23 31 -64 l-1 -45 -19 39 c-28 56 -40 67 -69 64 -56 -6 -35 -84 40 -152 43 -39 49 -49 48 -83 l0 -38 -18 40 c-22 50 -43 68 -73 63 -25 -3 -33 -26 -24 -64 8 -30 83 -114 102 -114 10 0 14 -14 13 -47 l0 -48 -18 40 c-25 55 -57 82 -79 69 -44 -28 -11 -115 62 -164 33 -23 36 -29 35 -70 -1 -44 -1 -44 -11 -15 -20 56 -48 86 -77 83 -22 -3 -26 -8 -29 -41 -3 -34 2 -43 57 -98 53 -53 61 -65 60 -97 l0 -37 -18 40 c-22 50 -43 68 -73 63 -53 -7 -30 -86 43 -152 43 -39 49 -49 48 -83 l0 -38 -19 41 c-23 52 -56 77 -82 63 -11 -6 -18 -21 -18 -38 0 -34 51 -107 91 -129 25 -15 29 -23 29 -62 l0 -45 -24 51 c-25 53 -46 69 -77 59 -14 -5 -19 -16 -19 -43 0 -31 8 -44 60 -94 53 -52 60 -63 59 -96 l0 -37 -18 40 c-22 50 -43 68 -73 63 -28 -4 -35 -37 -18 -79 17 -40 94 -109 123 -109 31 0 112 62 133 102 17 33 12 73 -9 81 -28 11 -62 -19 -84 -73 l-22 -55 0 55 c0 54 1 56 50 93 74 56 100 126 54 144 -31 11 -63 -14 -84 -69 l-20 -53 0 58 c-1 40 3 57 12 57 20 0 105 92 112 123 8 31 -8 57 -34 57 -24 0 -58 -39 -75 -85 l-15 -40 0 51 c-1 48 1 52 45 84 74 56 104 121 68 151 -27 22 -65 -8 -91 -71 l-22 -55 0 55 c0 54 1 56 49 92 27 21 57 52 66 69 21 41 12 79 -19 79 -35 0 -55 -20 -77 -75 l-19 -50 -1 55 c0 51 2 57 29 73 38 23 89 81 97 112 7 29 -10 55 -35 55 -24 0 -58 -39 -75 -85 l-15 -40 0 52 c-1 37 3 54 15 61 8 5 35 28 59 51 49 47 66 95 42 118 -29 30 -79 -9 -105 -82 -10 -29 -10 -28 -11 20 0 48 2 51 50 88 57 44 83 88 75 123 -5 18 -13 24 -35 24 -34 0 -46 -13 -71 -77 l-19 -48 -1 63 c0 43 4 62 13 62 19 0 105 94 113 124 7 30 -9 56 -35 56 -24 0 -58 -39 -75 -85 l-15 -40 0 51 c-1 48 1 52 45 84 74 56 104 121 68 151 -27 22 -65 -8 -91 -71 l-22 -55 0 55 c0 54 1 56 50 93 57 44 83 88 75 123 -5 18 -13 24 -35 24 -34 0 -46 -13 -71 -77 l-19 -48 -1 55 c0 51 2 57 29 73 38 23 89 81 97 112 7 29 -10 55 -35 55 -24 0 -58 -39 -75 -85 l-15 -40 0 48 c-1 46 1 50 60 105 49 46 61 63 62 91 4 78 -72 56 -105 -30 l-17 -44 0 50 c-1 49 0 52 49 88 56 42 84 88 76 122 -14 57 -72 31 -103 -45 l-22 -55 0 55 c0 54 1 56 50 93 74 56 100 126 54 144 -31 11 -63 -14 -84 -69 l-20 -53 0 58 c-1 40 3 57 12 57 20 0 105 92 112 123 8 31 -8 57 -34 57 -24 0 -58 -39 -75 -85 l-15 -40 0 50 c-1 49 0 52 49 88 75 56 101 124 58 151 -25 15 -69 -21 -90 -75 l-17 -44 0 50 c0 48 2 51 49 87 54 41 83 87 78 121 -2 18 -10 22 -38 22 -32 0 -37 -4 -62 -55 l-27 -55 -1 53 c0 37 4 52 14 52 7 0 36 24 65 54 53 57 64 93 36 116 -28 23 -62 3 -89 -52 l-25 -53 -1 45 c0 43 3 48 50 84 76 58 101 123 58 150 -25 15 -69 -21 -90 -75 l-17 -44 0 50 c0 48 2 51 45 83 74 55 107 129 66 150 -30 17 -61 -5 -87 -60 l-25 -53 0 53 c0 36 4 52 13 52 18 0 103 90 112 118 9 31 -3 62 -25 62 -36 0 -53 -14 -76 -64 l-23 -51 0 45 c-1 44 2 48 49 84 71 54 99 113 68 144 -29 29 -72 0 -101 -68 l-15 -35 -1 45 c0 42 3 47 46 80 73 55 103 121 68 150 -30 25 -78 -15 -103 -85 -10 -28 -10 -26 -11 28 -1 40 3 57 12 57 22 0 106 94 113 126 7 38 -14 59 -52 50 -18 -5 -32 -21 -49 -59 l-24 -52 0 45 c-1 44 2 48 49 84 71 54 99 113 68 144 -30 30 -76 -3 -102 -73 l-15 -40 0 50 c0 48 2 51 45 83 74 55 107 129 67 150 -31 17 -62 -5 -88 -60 l-25 -53 0 53 c0 28 4 52 9 52 18 0 109 91 115 116 13 52 -11 76 -59 57 -10 -3 -28 -29 -41 -57 l-23 -51 0 45 c-1 42 2 48 43 80 74 59 104 118 74 148 -29 29 -72 0 -101 -68 l-15 -35 -1 45 c-1 43 1 48 49 83 75 56 101 124 58 151 -25 15 -69 -21 -90 -75 l-17 -44 0 53 c-1 28 3 52 7 52 16 0 93 72 108 102 9 18 13 40 9 55 -5 20 -11 24 -38 21 -28 -3 -36 -10 -59 -58 l-27 -55 -1 53 c0 37 4 52 14 52 7 0 36 24 65 54 51 55 63 90 39 114 -29 29 -72 0 -101 -68 l-15 -35 -1 46 c-1 43 2 47 45 79 74 56 104 121 68 151 -27 22 -65 -8 -91 -71 l-22 -55 0 55 c0 54 1 56 50 93 27 22 56 52 65 69 21 40 11 78 -19 78 -35 0 -55 -20 -77 -75 l-19 -50 -1 55 c0 51 2 57 29 73 38 23 89 81 97 112 7 29 -10 55 -35 55 -24 0 -58 -39 -75 -85 l-15 -40 0 50 c-1 47 1 52 42 85 58 46 79 75 81 112 3 75 -74 51 -106 -33 l-17 -44 0 50 c-1 49 0 52 49 88 56 42 84 88 76 123 -5 18 -13 24 -35 24 -34 0 -46 -13 -71 -77 l-19 -48 0 55 c0 54 1 56 50 93 74 56 100 126 54 144 -31 11 -63 -14 -84 -69 l-20 -53 0 58 c-1 40 3 57 12 57 20 0 105 92 112 123 8 31 -8 57 -34 57 -24 0 -58 -39 -75 -85 l-15 -40 0 50 c-1 50 0 52 49 89 57 44 84 87 76 121 -15 59 -74 32 -105 -47 l-20 -53 0 60 c-1 57 1 62 28 78 38 23 89 81 97 112 4 15 1 32 -6 40 -30 36 -78 4 -104 -69 l-14 -41 -1 58 c-1 40 3 57 12 57 7 0 34 22 61 49 35 36 48 57 49 81 4 77 -72 54 -105 -31 l-17 -44 0 50 c-1 50 0 52 49 89 57 44 84 87 76 121 -14 57 -72 31 -103 -45 l-22 -55 0 55 c0 54 1 56 49 92 27 21 57 52 66 69 21 41 12 79 -19 79 -35 0 -55 -20 -77 -75 l-19 -50 -1 58 c0 42 4 57 14 57 19 0 104 94 112 124 7 30 -9 56 -35 56 -24 0 -58 -39 -75 -85 l-15 -40 0 51 c-1 48 1 52 45 84 74 56 104 121 68 151 -27 22 -65 -8 -91 -71 l-22 -55 0 55 c0 54 1 56 49 92 27 21 57 52 66 69 21 41 12 79 -19 79 -35 0 -55 -20 -77 -75 l-19 -50 -1 55 c0 51 2 57 29 73 38 23 89 81 97 112 7 29 -10 55 -35 55 -24 0 -58 -39 -75 -85 l-15 -40 0 50 c-1 50 0 52 49 89 71 54 99 113 68 144 -30 30 -76 -3 -102 -73 l-15 -40 0 50 c0 48 2 51 45 83 74 55 107 129 66 150 -30 17 -61 -5 -87 -60 l-25 -53 0 53 c0 28 4 52 9 52 18 0 109 91 115 116 13 52 -11 76 -59 57 -10 -3 -28 -29 -41 -57 l-23 -51 0 45 c-1 43 2 48 48 84 72 57 99 114 69 144 -29 29 -72 0 -101 -68 l-15 -35 -1 45 c-1 43 1 48 49 83 75 56 101 124 58 151 -25 15 -69 -21 -90 -75 l-17 -44 0 53 c-1 28 3 52 7 52 16 0 93 72 108 102 19 37 11 78 -15 78 -37 0 -54 -14 -77 -64 l-23 -51 0 53 c-1 37 3 52 13 52 7 0 36 24 65 54 51 55 63 90 39 114 -29 29 -72 0 -101 -68 l-15 -35 -1 45 c-1 43 1 48 49 83 75 56 101 124 58 151 -25 15 -69 -21 -90 -75 l-17 -44 0 58 c-1 31 3 57 7 57 16 0 93 72 108 102 19 37 11 78 -15 78 -37 0 -54 -14 -77 -64 l-23 -51 0 53 c-1 36 3 52 12 52 20 0 107 90 114 118 3 14 1 32 -4 41 -25 40 -72 16 -104 -54 l-18 -40 0 45 c-1 43 2 48 49 83 75 56 101 124 58 151 -25 15 -69 -21 -90 -75 l-17 -44 0 50 c0 48 2 51 49 87 54 41 83 87 78 121 -2 18 -10 22 -38 22 -32 0 -37 -4 -62 -55 l-27 -55 -1 53 c0 37 4 52 14 52 23 0 116 106 116 133 0 33 -23 51 -56 43 -18 -5 -32 -21 -49 -59 l-24 -52 0 45 c-1 44 2 48 49 84 76 58 101 123 58 150 -25 15 -69 -21 -90 -75 l-17 -44 0 50 c0 48 2 51 45 83 74 55 107 129 67 150 -31 17 -62 -5 -88 -60 l-25 -53 0 53 c0 29 5 52 10 52 19 0 108 90 114 116 9 36 -2 64 -25 64 -36 0 -57 -19 -76 -67 l-18 -48 -5 55 c-6 66 -23 72 -30 10 -5 -40 -6 -42 -14 -20 -21 62 -73 100 -99 73z"
       id="path2"
       style="fill:#ffffff" />
  </g>
</svg>
